<?xml version="1.0" encoding="utf-8"?>
<svg viewBox="0 0 500 500" xmlns="http://www.w3.org/2000/svg" xmlns:bx="https://boxy-svg.com">
  <path style="stroke: rgb(0, 0, 0); fill: rgb(214, 10, 10);" d="M 261.702 140.113 C 333.659 140.113 391.726 198.945 390.786 270.896 C 390.519 291.281 380.39 310.273 363.611 321.85 C 342.826 336.192 314.153 324.544 309.259 299.77 C 305.553 280.992 282.909 273.267 268.499 285.865 C 263.025 290.651 259.92 297.594 260.003 304.865 C 260.39 339.051 223.626 360.836 193.826 344.079 C 186.669 340.054 180.767 334.124 176.778 326.946 C 135.088 251.955 177.789 158.013 261.702 140.113 Z"/>
  <path style="fill: rgb(186, 217, 214); stroke: rgb(156, 199, 168);" d="M 363.73 242.56 H 435.574 A 25.37 25.37 0 0 1 460.944 267.93 V 270.976 A 27.591 27.591 0 0 1 433.353 298.567 H 364.465 A 25.37 25.37 0 0 1 339.095 273.197 V 267.195 A 24.635 24.635 0 0 1 363.73 242.56 Z" transform="matrix(0.992326, -0.123648, 0.152836, 0.988689, -168.442673, -4.727224)" bx:shape="rect 339.095 242.56 121.849 56.007 24.635 25.37 27.591 25.37 1@fcf1ed86"/>
</svg>