<?xml version="1.0" encoding="utf-8"?>
<svg viewBox="0 0 427.901 427.901" xmlns="http://www.w3.org/2000/svg" xmlns:bx="https://boxy-svg.com">
  <defs>
    <linearGradient gradientUnits="userSpaceOnUse" x1="229" y1="250.838" x2="229" y2="721.162" id="gradient-0">
      <stop offset="0" style="stop-color: rgba(123, 123, 123, 1)"/>
      <stop offset="1" style="stop-color: rgba(72, 72, 72, 1)"/>
    </linearGradient>
    <linearGradient gradientUnits="userSpaceOnUse" x1="465" y1="36.27" x2="465" y2="317.73" id="gradient-1">
      <stop offset="0" style="stop-color: rgba(123, 123, 123, 1)"/>
      <stop offset="1" style="stop-color: rgba(72, 72, 72, 1)"/>
    </linearGradient>
    <linearGradient gradientUnits="userSpaceOnUse" x1="896" y1="313.656" x2="896" y2="686.344" id="gradient-2">
      <stop offset="0" style="stop-color: rgba(123, 123, 123, 1)"/>
      <stop offset="1" style="stop-color: rgba(72, 72, 72, 1)"/>
    </linearGradient>
    <linearGradient gradientUnits="userSpaceOnUse" x1="242.097" y1="19.426" x2="242.097" y2="435.905" id="gradient-3" gradientTransform="matrix(-0.705694, 0.708517, -1.022406, -1.018334, 627.888611, 280.33667)">
      <stop offset="0" style="stop-color: rgb(163, 163, 163);"/>
      <stop offset="1" style="stop-color: rgb(84, 74, 74);"/>
    </linearGradient>
  </defs>
  <rect style="stroke: rgb(0, 0, 0); fill: url(#gradient-3);" x="5.857" y="5.426" width="416.479" height="416.479" rx="36" ry="36"/>
  <path style="fill: url(#gradient-0); stroke: rgb(183, 183, 183); stroke-width: 2.2576px;" transform="matrix(-0.433226, -0.092296, 0.092296, -0.433226, 177.432602, 492.551971)" d="M 200.23 250.838 L 257.77 250.838 L 269.913 338.722 A 152.855 152.855 0 0 1 304.211 352.929 L 374.941 299.372 L 415.628 340.059 L 362.071 410.789 A 152.855 152.855 0 0 1 376.278 445.087 L 464.162 457.23 L 464.162 514.77 L 376.278 526.913 A 152.855 152.855 0 0 1 362.071 561.211 L 415.628 631.941 L 374.941 672.628 L 304.211 619.071 A 152.855 152.855 0 0 1 269.913 633.278 L 257.77 721.162 L 200.23 721.162 L 188.087 633.278 A 152.855 152.855 0 0 1 153.789 619.071 L 83.059 672.628 L 42.372 631.941 L 95.929 561.211 A 152.855 152.855 0 0 1 81.722 526.913 L -6.162 514.77 L -6.162 457.23 L 81.722 445.087 A 152.855 152.855 0 0 1 95.929 410.789 L 42.372 340.059 L 83.059 299.372 L 153.789 352.929 A 152.855 152.855 0 0 1 188.087 338.722 Z M 229 415.452 A 70.548 70.548 0 0 0 229 556.548 A 70.548 70.548 0 0 0 229 415.452" bx:shape="cog 229 486 70.548 152.855 235.162 0.38 8 1@333322f7"/>
  <path style="fill: url(#gradient-1); stroke: rgb(183, 183, 183); stroke-width: 2.10385px;" transform="matrix(-0.170339, 0.443749, -0.443749, -0.170339, 348.455963, -57.522739)" d="M 447.783 36.27 L 482.217 36.27 L 489.484 88.863 A 91.475 91.475 0 0 1 510.01 97.365 L 552.337 65.314 L 576.686 89.663 L 544.635 131.99 A 91.475 91.475 0 0 1 553.137 152.516 L 605.73 159.783 L 605.73 194.217 L 553.137 201.484 A 91.475 91.475 0 0 1 544.635 222.01 L 576.686 264.337 L 552.337 288.686 L 510.01 256.635 A 91.475 91.475 0 0 1 489.484 265.137 L 482.217 317.73 L 447.783 317.73 L 440.516 265.137 A 91.475 91.475 0 0 1 419.99 256.635 L 377.663 288.686 L 353.314 264.337 L 385.365 222.01 A 91.475 91.475 0 0 1 376.863 201.484 L 324.27 194.217 L 324.27 159.783 L 376.863 152.516 A 91.475 91.475 0 0 1 385.365 131.99 L 353.314 89.663 L 377.663 65.314 L 419.99 97.365 A 91.475 91.475 0 0 1 440.516 88.863 Z M 465 134.781 A 42.219 42.219 0 0 0 465 219.219 A 42.219 42.219 0 0 0 465 134.781" bx:shape="cog 465 177 42.219 91.475 140.73 0.38 8 1@c14db119"/>
  <path style="fill: url(#gradient-2); stroke: rgb(183, 183, 183); stroke-width: 2.10385px;" transform="matrix(-0.324167, -0.347627, 0.347627, -0.324167, 438.057678, 642.661194)" d="M 873.202 313.656 L 918.798 313.656 L 928.42 383.296 A 121.123 121.123 0 0 1 955.598 394.554 L 1011.645 352.115 L 1043.885 384.355 L 1001.446 440.402 A 121.123 121.123 0 0 1 1012.704 467.58 L 1082.344 477.202 L 1082.344 522.798 L 1012.704 532.42 A 121.123 121.123 0 0 1 1001.446 559.598 L 1043.885 615.645 L 1011.645 647.885 L 955.598 605.446 A 121.123 121.123 0 0 1 928.42 616.704 L 918.798 686.344 L 873.202 686.344 L 863.58 616.704 A 121.123 121.123 0 0 1 836.402 605.446 L 780.355 647.885 L 748.115 615.645 L 790.554 559.598 A 121.123 121.123 0 0 1 779.296 532.42 L 709.656 522.798 L 709.656 477.202 L 779.296 467.58 A 121.123 121.123 0 0 1 790.554 440.402 L 748.115 384.355 L 780.355 352.115 L 836.402 394.554 A 121.123 121.123 0 0 1 863.58 383.296 Z M 896 444.097 A 55.903 55.903 0 0 0 896 555.903 A 55.903 55.903 0 0 0 896 444.097" bx:shape="cog 896 500 55.903 121.123 186.344 0.38 8 1@f8e76ee5"/>
</svg>