<?xml version="1.0" encoding="utf-8"?>
<svg viewBox="0 0 450 450" xmlns="http://www.w3.org/2000/svg" xmlns:bx="https://boxy-svg.com">
  <defs>
    <path id="path-0" style="fill: none;" d="M 162.062 65.85 C 177.071 54.933 180.897 54.925 183.609 54.925 C 188.636 54.621 192.609 54.014 196.66 54.014 C 201.873 54.014 207.397 53.711 211.531 53.711 C 218.71 55.652 219.987 58.394 223.974 60.387 C 225.879 62.293 239.279 69.016 240.666 70.403"/>
  </defs>
  <line style="stroke: rgb(0, 0, 0); stroke-width: 5px;" x1="185.172" y1="159.275" x2="200.097" y2="282.414"/>
  <path style="stroke: rgb(0, 0, 0); stroke-width: 5px; fill: none;" transform="matrix(0.990268, -0.139173, 0.139173, 0.990268, 58.003368, -66.269531)" d="M 94.009 206.049 H 94.087 A 17.5 17.5 0 0 1 111.587 223.549 V 241.127 H 76.509 V 223.549 A 17.5 17.5 0 0 1 94.009 206.049 Z" bx:shape="rect 76.509 206.049 35.078 35.078 17.5 17.5 0 0 1@1b352aa9"/>
  <polyline style="stroke: rgb(0, 0, 0); fill: none; stroke-width: 4px;" points="225.948 278.981 244.31 234.65 244.31 179.956 191.675 201.758"/>
  <polyline style="stroke: rgb(0, 0, 0); fill: none; stroke-width: 4px;" points="282.553 179.892 300.915 224.223 300.915 278.917 248.28 257.115" transform="matrix(-1, 0, 0, -1, 549.195007, 458.80899)"/>
  <path style="stroke: rgb(255, 255, 255);" transform="matrix(0.24215, 0.321344, -0.321344, 0.24215, 121.324867, -187.132416)" d="M 939 249 A 62.65 62.65 0 1 1 882 212.35 L 882 275 Z" bx:shape="pie 882 275 0 62.65 65.48 360 1@e03b1687"/>
  <line style="stroke: rgb(0, 0, 0); stroke-width: 5px;" x1="58.195" y1="182.146" x2="73.121" y2="305.285"/>
  <path style="stroke: rgb(0, 0, 0); stroke-width: 5px; fill: none;" transform="matrix(0.990268, -0.139173, 0.139173, 0.990268, -68.973915, -43.398254)" d="M 94.009 206.049 H 94.087 A 17.5 17.5 0 0 1 111.587 223.549 V 241.127 H 76.509 V 223.549 A 17.5 17.5 0 0 1 94.009 206.049 Z" bx:shape="rect 76.509 206.049 35.078 35.078 17.5 17.5 0 0 1@1b352aa9"/>
  <polyline style="stroke: rgb(0, 0, 0); fill: none; stroke-width: 4px;" points="98.97 301.852 117.333 257.521 117.333 202.827 64.698 224.629"/>
  <polyline style="stroke: rgb(0, 0, 0); fill: none; stroke-width: 4px;" points="155.576 202.763 173.938 247.094 173.938 301.788 121.303 279.986" transform="matrix(-1, 0, 0, -1, 295.241005, 504.550995)"/>
  <path style="stroke: rgb(255, 255, 255);" transform="matrix(-0.202617, -0.039385, 0.039385, -0.202617, 203.438248, 264.552307)" d="M 457.124 173.406 L 486.876 173.406 L 493.155 218.848 A 79.036 79.036 0 0 1 510.889 226.194 L 547.461 198.501 L 568.499 219.539 L 540.806 256.111 A 79.036 79.036 0 0 1 548.152 273.845 L 593.594 280.124 L 593.594 309.876 L 548.152 316.155 A 79.036 79.036 0 0 1 540.806 333.889 L 568.499 370.461 L 547.461 391.499 L 510.889 363.806 A 79.036 79.036 0 0 1 493.155 371.152 L 486.876 416.594 L 457.124 416.594 L 450.845 371.152 A 79.036 79.036 0 0 1 433.111 363.806 L 396.539 391.499 L 375.501 370.461 L 403.194 333.889 A 79.036 79.036 0 0 1 395.848 316.155 L 350.406 309.876 L 350.406 280.124 L 395.848 273.845 A 79.036 79.036 0 0 1 403.194 256.111 L 375.501 219.539 L 396.539 198.501 L 433.111 226.194 A 79.036 79.036 0 0 1 450.845 218.848 Z M 472 258.522 A 36.478 36.478 0 0 0 472 331.478 A 36.478 36.478 0 0 0 472 258.522" bx:shape="cog 472 295 36.478 79.036 121.594 0.38 8 1@b2837830"/>
  <line style="stroke: rgb(0, 0, 0); stroke-width: 5px;" x1="318.314" y1="182.174" x2="333.239" y2="305.313"/>
  <path style="stroke: rgb(0, 0, 0); stroke-width: 5px; fill: none;" transform="matrix(0.990268, -0.139173, 0.139173, 0.990268, 191.144958, -43.370224)" d="M 94.009 206.049 H 94.087 A 17.5 17.5 0 0 1 111.587 223.549 V 241.127 H 76.509 V 223.549 A 17.5 17.5 0 0 1 94.009 206.049 Z" bx:shape="rect 76.509 206.049 35.078 35.078 17.5 17.5 0 0 1@1b352aa9"/>
  <polyline style="stroke: rgb(0, 0, 0); fill: none; stroke-width: 4px;" points="378.988 237.437 377.452 257.549 377.452 202.855 324.816 224.657"/>
  <polyline style="stroke: rgb(0, 0, 0); fill: none; stroke-width: 4px;" points="381.23 199.952 399.592 244.283 399.592 301.816 399.785 289.803" transform="matrix(-1, 0, 0, -1, 781.015015, 501.768005)"/>
  <circle style="fill: none; stroke: rgb(0, 0, 0); stroke-width: 3px;" cx="224.716" cy="225.663" r="220"/>
</svg>